<svg width="400" height="59" viewBox="0 0 400 59" fill="none" xmlns="http://www.w3.org/2000/svg">
<g clip-path="url(#clip0_1089_14050)">
<path d="M0 51.3958L32.4017 0H52.5131V7.15072L24.5806 51.3958" fill="#FBBC04"/>
<path d="M52.5176 51.3958H32.4062V0H52.5176V51.3958Z" fill="#1A73E8"/>
<path d="M67.0405 36.8706C67.0405 44.8928 60.5378 51.3955 52.5156 51.3955V22.3457C60.5378 22.3457 67.0405 28.8484 67.0405 36.8706Z" fill="#34A853"/>
<path d="M52.5093 51.3955C44.4871 51.3955 37.9844 44.8928 37.9844 36.8706C37.9844 28.8484 44.4871 22.3457 52.5093 22.3457V51.3955Z" fill="#0D652D"/>
<path d="M63.6886 11.173C63.6886 17.3427 58.6876 22.346 52.5156 22.346V0C58.6876 0 63.6886 5.00327 63.6886 11.173Z" fill="#1A73E8"/>
<path d="M52.5167 22.346C46.3448 22.346 41.3438 17.3427 41.3438 11.173C41.3438 5.00327 46.3448 0 52.5167 0V22.346Z" fill="#174EA6"/>
<path d="M1.125 10.0557C1.125 4.50272 5.62772 0 11.1807 0C16.7337 0 21.2364 4.50272 21.2364 10.0557C21.2364 15.6087 16.7337 20.1114 11.1807 20.1114C5.62772 20.1114 1.125 15.6087 1.125 10.0557Z" fill="#EA4335"/>
<path d="M120.637 46.072C109.122 46.072 99.4375 36.7381 99.4375 25.2701C99.4375 13.8044 109.122 4.46826 120.637 4.46826C127.01 4.46826 131.544 6.95537 134.961 10.2022L130.93 14.2089C128.485 11.9274 125.173 10.1508 120.637 10.1508C112.228 10.1508 105.654 16.8993 105.654 25.2701C105.654 33.6432 112.228 40.3917 120.637 40.3917C126.09 40.3917 129.2 38.2085 131.189 36.2309C132.818 34.6063 133.891 32.2734 134.295 29.0757H120.637V23.3931H139.852C140.056 24.4076 140.156 25.6277 140.156 26.9461C140.156 31.2075 138.983 36.4834 135.211 40.2397C131.542 44.043 126.856 46.072 120.637 46.072Z" fill="#BDC1C7"/>
<path d="M169.884 32.6779C169.884 40.3895 163.927 46.0721 156.619 46.0721C149.315 46.0721 143.359 40.3895 143.359 32.6779C143.359 24.9149 149.315 19.2837 156.619 19.2837C163.927 19.2837 169.884 24.9149 169.884 32.6779ZM164.079 32.6779C164.079 27.8579 160.622 24.5596 156.619 24.5596C152.617 24.5596 149.163 27.8579 149.163 32.6779C149.163 37.4465 152.617 40.7962 156.619 40.7962C160.622 40.7962 164.079 37.4465 164.079 32.6779Z" fill="#BDC1C7"/>
<path d="M199.603 32.6779C199.603 40.3895 193.645 46.0721 186.338 46.0721C179.036 46.0721 173.078 40.3895 173.078 32.6779C173.078 24.9149 179.036 19.2837 186.338 19.2837C193.645 19.2837 199.603 24.9149 199.603 32.6779ZM193.797 32.6779C193.797 27.8579 190.343 24.5596 186.338 24.5596C182.336 24.5596 178.884 27.8579 178.884 32.6779C178.884 37.4465 182.336 40.7962 186.338 40.7962C190.343 40.7962 193.797 37.4465 193.797 32.6779Z" fill="#BDC1C7"/>
<path d="M228.584 20.0949V44.1458C228.584 54.0407 222.725 58.0987 215.793 58.0987C209.27 58.0987 205.347 53.7345 203.869 50.1837L209.014 48.0519C209.932 50.2329 212.173 52.8206 215.793 52.8206C220.227 52.8206 222.98 50.0832 222.98 44.957V43.0285H222.776C221.451 44.6531 218.902 46.0721 215.693 46.0721C208.964 46.0721 202.797 40.2398 202.797 32.7293C202.797 25.1696 208.964 19.2837 215.693 19.2837C218.902 19.2837 221.451 20.7049 222.776 22.2781H222.98V20.0949H228.584ZM223.386 32.7293C223.386 28.012 220.227 24.5596 216.202 24.5596C212.124 24.5596 208.71 28.012 208.71 32.7293C208.71 37.3974 212.124 40.7962 216.202 40.7962C220.227 40.7962 223.386 37.3974 223.386 32.7293Z" fill="#BDC1C7"/>
<path d="M238.944 45.2583H233.031V5.88916H238.944V45.2583Z" fill="#BDC1C7"/>
<path d="M262.194 37.0909L266.781 40.1345C265.306 42.3177 261.736 46.0696 255.57 46.0696C247.928 46.0696 242.406 40.1881 242.406 32.6798C242.406 24.7135 247.975 19.2856 254.909 19.2856C261.892 19.2856 265.306 24.814 266.426 27.8062L267.036 29.3279L249.047 36.7356C250.424 39.4239 252.563 40.7959 255.57 40.7959C258.576 40.7959 260.667 39.3233 262.194 37.0909ZM248.078 32.2709L260.107 27.3012C259.443 25.6274 257.456 24.4587 255.11 24.4587C252.104 24.4587 247.928 27.0956 248.078 32.2709Z" fill="#BDC1C7"/>
<path d="M287.4 29.4852V45.2637H282.672V8.46436H304.155V12.985H287.4V25.063H302.513V29.4852H287.4Z" fill="#BDC1C7"/>
<path d="M306.297 32.6716C306.297 28.8013 307.512 25.5969 309.946 23.0606C312.413 20.5243 315.515 19.2573 319.249 19.2573C322.985 19.2573 326.066 20.5243 328.5 23.0606C330.967 25.5969 332.2 28.8013 332.2 32.6716C332.2 36.5777 330.967 39.7821 328.5 42.2826C326.066 44.8189 322.985 46.0859 319.249 46.0859C315.515 46.0859 312.413 44.8189 309.946 42.2826C307.512 39.7464 306.297 36.542 306.297 32.6716ZM311.025 32.6716C311.025 35.3777 311.814 37.5699 313.389 39.248C314.965 40.9285 316.918 41.7664 319.249 41.7664C321.579 41.7664 323.532 40.9285 325.108 39.248C326.683 37.5699 327.472 35.3777 327.472 32.6716C327.472 29.999 326.683 27.8225 325.108 26.1444C323.497 24.4304 321.544 23.5746 319.249 23.5746C316.951 23.5746 314.998 24.4304 313.389 26.1444C311.814 27.8225 311.025 29.999 311.025 32.6716Z" fill="#BDC1C7"/>
<path d="M336.219 20.0797H340.742V23.5723H340.947C341.667 22.3411 342.773 21.3132 344.263 20.4908C345.754 19.6663 347.302 19.2573 348.916 19.2573C352 19.2573 354.37 20.1378 356.031 21.9031C357.693 23.6662 358.525 26.1779 358.525 29.4337V45.2636H353.796V29.7398C353.693 25.6282 351.622 23.5723 347.577 23.5723C345.691 23.5723 344.116 24.3366 342.849 25.8606C341.58 27.3868 340.947 29.2102 340.947 31.3331V45.2636H336.219V20.0797Z" fill="#BDC1C7"/>
<path d="M373.084 45.6751C371.028 45.6751 369.321 45.0404 367.969 43.7712C366.615 42.5042 365.922 40.7411 365.887 38.4797V24.3972H361.469V20.0822H365.887V12.3706H370.617V20.0822H376.782V24.3972H370.617V36.9378C370.617 38.616 370.941 39.7579 371.594 40.3567C372.244 40.9578 372.981 41.2528 373.802 41.2528C374.179 41.2528 374.548 41.2126 374.908 41.1277C375.27 41.0428 375.603 40.9288 375.911 40.7902L377.401 45.0047C376.168 45.4494 374.727 45.6751 373.084 45.6751Z" fill="#BDC1C7"/>
<path d="M399.998 38.2738C399.998 40.4659 399.038 42.3184 397.12 43.8245C395.201 45.3306 392.783 46.0859 389.873 46.0859C387.337 46.0859 385.107 45.4245 383.19 44.1061C381.27 42.7899 379.9 41.0491 379.078 38.8905L383.29 37.0917C383.909 38.6 384.808 39.7732 385.99 40.6134C387.172 41.4514 388.468 41.8715 389.873 41.8715C391.382 41.8715 392.64 41.5475 393.65 40.895C394.66 40.2447 395.165 39.4737 395.165 38.5821C395.165 36.971 393.934 35.7911 391.467 35.0358L387.147 33.9565C382.247 32.723 379.798 30.3588 379.798 26.8639C379.798 24.569 380.729 22.7254 382.598 21.34C384.466 19.9523 386.857 19.2573 389.771 19.2573C391.996 19.2573 394.01 19.7892 395.809 20.8506C397.607 21.9143 398.865 23.3332 399.583 25.1164L395.371 26.8639C394.89 25.8025 394.112 24.9712 393.033 24.3701C391.954 23.7734 390.743 23.4718 389.409 23.4718C388.175 23.4718 387.069 23.7802 386.093 24.3969C385.116 25.0137 384.629 25.7667 384.629 26.6583C384.629 28.0974 385.983 29.1253 388.687 29.7421L392.495 30.7186C397.496 31.9521 399.998 34.4705 399.998 38.2738Z" fill="#BDC1C7"/>
</g>
<defs>
<clipPath id="clip0_1089_14050">
<rect width="400" height="58.1" fill="white"/>
</clipPath>
</defs>
</svg>
